<?xml version="1.0" encoding="UTF-8" standalone="no"?>
<!DOCTYPE svg PUBLIC "-//W3C//DTD SVG 1.1//EN" "http://www.w3.org/Graphics/SVG/1.1/DTD/svg11.dtd">
<svg width="100%" height="100%" viewBox="0 0 1080 1080" version="1.1" xmlns="http://www.w3.org/2000/svg" xmlns:xlink="http://www.w3.org/1999/xlink" xml:space="preserve" xmlns:serif="http://www.serif.com/" style="fill-rule:evenodd;clip-rule:evenodd;stroke-linecap:round;stroke-linejoin:round;stroke-miterlimit:1.5;">
    <g>
        <path id="Curves-12" d="M227.72,723.524C227.288,730.697 228.653,737.571 232.231,744.076M246.267,752.598C246.267,752.598 254.477,752.28 256.544,749.34C259.51,745.121 264.063,727.283 264.063,727.283" style="fill:none;stroke:black;stroke-width:0.9px;"/>
        <path id="Curves-11" d="M306.672,728.537C306.672,728.537 308.218,746.04 310.933,749.841C313.282,753.13 322.964,751.345 322.964,751.345M335.746,742.071C338.941,735.638 339.737,729.205 338.253,722.772" style="fill:none;stroke:black;stroke-width:0.9px;"/>
        <path id="Curves-10" d="M320,780L311.685,874.065" style="fill:none;stroke:black;stroke-width:0.9px;"/>
        <path id="Curves-9" d="M240,780L248.523,875.569" style="fill:none;stroke:black;stroke-width:0.9px;"/>
        <path id="Curves-8" d="M775,760C761.869,744.928 755.397,726.156 753.217,705M762.829,741.379C758.12,730.657 750.155,726.297 738.592,728.969" style="fill:none;stroke:black;stroke-width:0.9px;"/>
        <path id="Curves-7" d="M805,760C818.131,744.928 824.604,726.156 826.783,705M817.171,741.379C821.881,730.657 829.846,726.297 841.408,728.969" style="fill:none;stroke:black;stroke-width:0.9px;"/>
        <path id="Curves-6" d="M185,290C191.354,297.041 196.782,309.116 206.812,309.225" style="fill:none;stroke:black;stroke-width:0.9px;"/>
        <path id="Curves-5" d="M375,290C368.532,297.122 363.251,309.289 353.188,309.225" style="fill:none;stroke:black;stroke-width:0.83px;"/>
        <path id="Curves-4" d="M230.463,181.548L224.447,190.237L241.157,190.571L243.496,185.558" style="fill:none;stroke:black;stroke-width:0.9px;"/>
        <path id="Curves-3" d="M314.678,185.558L317.017,190.571L333.727,190.237L327.711,181.548" style="fill:none;stroke:black;stroke-width:0.83px;"/>
        <path id="Curves-2" d="M139.898,370.991C144.365,377.673 153.588,379.125 166.967,376.004" style="fill:none;stroke:black;stroke-width:0.9px;"/>
        <path id="Curves-1" d="M395.886,378.343C404.688,381.705 413.039,379.215 420.95,370.991" style="fill:none;stroke:black;stroke-width:0.9px;"/>
        <path id="Facial_features" d="M268.037,122.12C276.82,124.099 285.604,124.191 294.387,122.12M263.708,82.667C263.709,82.695 263.71,82.724 263.71,82.753C263.71,84.002 262.687,85.016 261.427,85.016C260.167,85.016 259.145,84.002 259.145,82.753C259.145,81.505 260.167,80.491 261.427,80.491C262.173,80.491 262.836,80.846 263.252,81.395C263.238,81.394 263.224,81.394 263.21,81.394C262.802,81.394 262.471,81.722 262.471,82.126C262.471,82.53 262.802,82.858 263.21,82.858C263.402,82.858 263.577,82.786 263.708,82.667ZM268.57,83.317C263.748,79.345 259.086,79.221 254.597,83.234M252.559,83.234C257.882,77.731 263.947,77.55 270.691,83.359C271.232,83.824 270.082,85.644 268.819,84.398C263.339,88.963 258.511,88.442 254.139,84.357M258.287,80.876C257.637,82.1 257.806,83.961 258.465,84.868C260.097,87.113 263.883,86.596 264.808,83.676C264.892,83.409 265.143,82.258 264.666,80.981M296.628,82.667C296.627,82.695 296.626,82.724 296.626,82.753C296.626,84.002 297.649,85.016 298.909,85.016C300.169,85.016 301.191,84.002 301.191,82.753C301.191,81.505 300.169,80.491 298.909,80.491C298.163,80.491 297.501,80.846 297.084,81.395C297.098,81.394 297.112,81.394 297.126,81.394C297.534,81.394 297.865,81.722 297.865,82.126C297.865,82.53 297.534,82.858 297.126,82.858C296.934,82.858 296.759,82.786 296.628,82.667ZM291.766,83.317C296.588,79.345 301.25,79.221 305.739,83.234M307.777,83.234C302.454,77.731 296.389,77.55 289.645,83.359C289.104,83.824 290.254,85.644 291.517,84.398C296.997,88.963 301.826,88.442 306.197,84.357M302.049,80.876C302.699,82.1 302.53,83.961 301.871,84.868C300.239,87.113 296.453,86.596 295.528,83.676C295.444,83.409 295.193,82.258 295.67,80.981M251.021,78.196C252.68,72.575 269.028,71.892 273.607,77.511C276.986,81.657 274.634,99.926 274.634,99.926C270.719,101.428 267.087,107.739 268.987,107.626C272.473,107.418 276.195,108.723 277.885,110.877C278.659,111.864 280.713,112.026 281.649,110.877C282.968,109.257 286.968,107.042 290.033,107.797C291.829,108.239 288.411,102.532 284.9,100.268C283.153,92.477 282.138,82.453 285.413,77.854C290.108,71.261 305.803,72.593 309.026,76.485" style="fill:none;stroke:black;stroke-width:0.9px;"/>
        <path id="knee_right" d="M270,755L270,705C270,705 249.667,690 240,690C230.333,690 212,705 212,705L212,750L240,780L270,755Z" style="fill:none;stroke:black;stroke-width:1px;"/>
        <path id="feet_b_left" d="M740,978C739.547,982.755 738.95,987.833 736.95,992C734.95,996.167 728.825,998.5 728,1003C727.175,1007.5 728.209,1015.02 732,1019C738.667,1026 759.167,1042.33 768,1045C774.294,1046.9 781.833,1040.5 785,1035C788.167,1029.5 787,1019.7 787,1012C787,1001.67 784.667,982.017 785,973.017C785.192,967.841 788.667,963.008 789,958C789.333,952.992 787.932,947.937 787,942.969C785.5,934.969 780,910 780,910C780,910 765.206,918.493 760,925C753.333,933.333 740,960 740,960C740,960 740.508,972.667 740,978Z" style="fill:none;stroke:black;stroke-width:1px;"/>
        <path id="feet_b_right" d="M840,978C840.445,982.752 841,987.833 843,992C845,996.167 851.167,998.5 852,1003C852.833,1007.5 851.688,1014.92 848,1019C841.667,1026 822.833,1042.33 814,1045C807.148,1047.07 798.5,1040.5 795,1035C791.5,1029.5 793,1019.7 793,1012C793,1001.67 795.333,982.017 795,973.017C794.808,967.841 791.333,963.008 791,958C790.667,952.992 792.068,947.937 793,942.969C794.5,934.969 800,910 800,910C800,910 814.794,918.493 820,925C826.667,933.333 840,960 840,960C840,960 839.5,972.667 840,978Z" style="fill:none;stroke:black;stroke-width:1px;"/>
        <path id="ankle_b_right" d="M838,910C838,910 826.333,892.5 820,890C813.667,887.5 800,895 800,895L800,910C800,910 814.794,918.493 820,925C826.667,933.333 840,960 840,960L838,910Z" style="fill:none;stroke:black;stroke-width:1px;"/>
        <path id="calf_b_right" d="M838,910C838,910 826.333,892.5 820,890C813.667,887.5 800,895 800,895C800,895 796.167,837.5 797,815C797.686,796.486 805,760 805,760L860,755C860,755 868.287,801.839 865,825C861.333,850.833 838,910 838,910Z" style="fill:none;stroke:black;stroke-width:1px;"/>
        <path id="calf_b_left" d="M742,910C742,910 753.667,892.5 760,890C766.333,887.5 780,895 780,895C780,895 783.833,837.5 783,815C782.314,796.486 775,760 775,760L720,755C720,755 711.713,801.839 715,825C718.667,850.833 742,910 742,910Z" style="fill:none;stroke:black;stroke-width:1px;"/>
        <path id="knee_b_right" d="M860,705L800,705C800,705 796.24,721.641 797,730C797.833,739.167 805,760 805,760L860,755L860,705Z" style="fill:none;stroke:black;stroke-width:1px;"/>
        <path id="thigh_b_right" d="M860,705L800,705L790,545C790,545 798.334,560.833 805,565C811.667,569.167 821.537,570.769 830,570C839.167,569.167 851.769,566.585 860,560C868.333,553.333 880,530 880,530L875,620L860,705Z" style="fill:none;stroke:black;stroke-width:1px;"/>
        <path id="knee_b_left" d="M720,705L780,705C780,705 783.76,721.641 783,730C782.167,739.167 775,760 775,760L720,755L720,705Z" style="fill:none;stroke:black;stroke-width:1px;"/>
        <path id="feet_right" d="M276,945L277,960C277,960 268.179,969.107 267,975C265.333,983.333 266.667,1001.67 267,1010C267.202,1015.04 270.595,1020.22 269,1025C267.333,1030 261.833,1036.67 257,1040C252.167,1043.33 245.712,1046.5 240,1045C233.667,1043.33 224.665,1036.47 219,1030C213.167,1023.33 206.667,1011.33 205,1005C203.846,1000.62 206.667,994.83 209,992C211.282,989.232 217.164,991.101 219,988.019C223.667,980.185 237,945 237,945C237,945 248.773,940 255,940C261.5,940 276,945 276,945Z" style="fill:none;stroke:black;stroke-width:1px;"/>
        <path id="feet_left" d="M284,945L283,960C283,960 291.821,969.107 293,975C294.667,983.333 293.333,1001.67 293,1010C292.798,1015.04 289.405,1020.22 291,1025C292.667,1030 298.167,1036.67 303,1040C307.833,1043.33 314.288,1046.5 320,1045C326.333,1043.33 335.335,1036.47 341,1030C346.833,1023.33 353.333,1011.33 355,1005C356.154,1000.62 353.333,994.83 351,992C348.718,989.232 342.836,991.101 341,988.019C336.333,980.185 323,945 323,945C323,945 311.227,940 305,940C298.5,940 284,945 284,945Z" style="fill:none;stroke:black;stroke-width:1px;"/>
        <path id="ankle_right" d="M276,945L271,917L237,917L237,945L255,940L276,945Z" style="fill:none;stroke:black;stroke-width:1px;"/>
        <path id="thigh_right" d="M280,550L273,625L270,705C270,705 249.667,690 240,690C230.333,690 212,705 212,705L195,620L195,540L235,535L280,550Z" style="fill:none;stroke:black;stroke-width:1px;"/>
        <path id="thigh_left" d="M280,550L287,625L290,705C290,705 310.333,690 320,690C329.667,690 348,705 348,705L365,620L365,540L325,535L280,550Z" style="fill:none;stroke:black;stroke-width:1px;"/>
        <path id="ankle_b_left" d="M742,910C742,910 753.667,892.5 760,890C766.333,887.5 780,895 780,895L780,910C780,910 765.206,918.493 760,925C753.333,933.333 740,960 740,960L742,910Z" style="fill:none;stroke:black;stroke-width:1px;"/>
        <path id="ankle_left" d="M284,945L289,917L323,917L323,945L305,940L284,945Z" style="fill:none;stroke:black;stroke-width:1px;"/>
        <path id="calf_right" d="M270,755C270,755 274.876,794.932 275,815.001C275.167,842.001 271,917 271,917L237,917L225,870C225,870 211.874,837.299 210,820C207.833,800 212,750 212,750L240,780L270,755Z" style="fill:none;stroke:black;stroke-width:1px;"/>
        <path id="calf_left" d="M290,755C290,755 285.124,794.931 285,815C284.833,842 289,917 289,917L323,917C323,917 345.833,847 350,820C353.306,798.577 348,755 348,755L320,780L290,755Z" style="fill:none;stroke:black;stroke-width:1px;"/>
        <path id="thigh_b_left" d="M720,705L780,705L790,545C790,545 781.666,560.833 775,565C768.333,569.167 758.463,570.769 750,570C740.833,569.167 728.231,566.585 720,560C711.667,553.333 700,530 700,530L705,620L720,705Z" style="fill:none;stroke:black;stroke-width:1px;"/>
        <path id="knee_left" d="M290,755L290,705C290,705 310.333,690 320,690C329.667,690 348,705 348,705L348,755L320,780L290,755Z" style="fill:none;stroke:black;stroke-width:1px;"/>
        <path id="pelvis_b_right" d="M845,435C839.77,434.346 834.714,437.643 830,440C825,442.5 818.185,444.904 815,450C810.834,456.667 805.001,480 805.001,480L790,495L790,545C790,545 798.334,560.833 805,565C811.667,569.167 821.537,570.769 830,570C839.167,569.167 851.769,566.585 860,560C868.333,553.333 880,530 880,530L870,445C870,445 851.667,435.833 845,435Z" style="fill:none;stroke:black;stroke-width:1px;"/>
        <path id="pelvis_b_left" d="M735,435C740.23,434.346 745.286,437.643 750,440C755,442.5 761.815,444.904 765,450C769.166,456.667 774.999,480 774.999,480L790,495L790,545C790,545 781.666,560.833 775,565C768.333,569.167 758.463,570.769 750,570C740.833,569.167 728.231,566.585 720,560C711.667,553.333 700,530 700,530L710,445C710,445 728.333,435.833 735,435Z" style="fill:none;stroke:black;stroke-width:1px;"/>
        <path id="pelvis_right" d="M280,550L255,497.5L230,490L230,470L210,450L195,540L235,535L280,550Z" style="fill:none;stroke:black;stroke-width:1px;"/>
        <path id="pelvis_left" d="M280,550L305,497.5L330,490L330,470L350,450L365,540L325,535L280,550Z" style="fill:none;stroke:black;stroke-width:1px;"/>
        <path id="groin" d="M280,550L305,497.5L280,505L255,497.5L280,550Z" style="fill:none;stroke:black;stroke-width:1px;"/>
        <path id="hand_b_left" d="M647,530L607,520C607,520 591.523,518.583 585,522C578,525.667 569.997,534.005 565,542C560,550 554.167,561.167 555,570C555.833,578.833 567.5,586.667 570,595C572.395,602.982 567.5,613.333 570,620C572.483,626.621 578.043,633.735 585,635C594.167,636.667 615.833,635.833 625,630C634.167,624.167 637.5,609.167 640,600C642.193,591.96 639.171,583.292 640,575C641.167,563.333 647,530 647,530Z" style="fill:none;stroke:black;stroke-width:1px;"/>
        <path id="wrist_b_left" d="M607,520L647,530L655,505L616,495L607,520Z" style="fill:none;stroke:black;stroke-width:1px;"/>
        <path id="forearm_b_left" d="M630,400L685,407L655,505L616,495L630,400Z" style="fill:none;stroke:black;stroke-width:1px;"/>
        <path id="elbow_b_left" d="M645,350L690,365L685,407L630,400L644.973,365L645,350Z" style="fill:none;stroke:black;stroke-width:1px;"/>
        <path id="arm_b_left" d="M650,270L695,270L700,315L690,365L645,350L650,270Z" style="fill:none;stroke:black;stroke-width:1px;"/>
        <path id="hand_b_right" d="M933,530L973,520C973,520 988.477,518.583 995,522C1002,525.667 1010,534.005 1015,542C1020,550 1025.83,561.167 1025,570C1024.17,578.833 1012.5,586.667 1010,595C1007.61,602.982 1012.5,613.333 1010,620C1007.52,626.621 1001.96,633.735 995,635C985.833,636.667 964.167,635.833 955,630C945.833,624.167 942.5,609.167 940,600C937.807,591.96 940.829,583.292 940,575C938.833,563.333 933,530 933,530Z" style="fill:none;stroke:black;stroke-width:1px;"/>
        <path id="wrist_b_right" d="M933,530L973,520L964,495L925,505L933,530Z" style="fill:none;stroke:black;stroke-width:1px;"/>
        <path id="forearm_b_right" d="M895,407L950,400L964,495L925,505L895,407Z" style="fill:none;stroke:black;stroke-width:1px;"/>
        <path id="elbow_b_right" d="M890,365L935,350L935,365L950,400L895,407L890,365Z" style="fill:none;stroke:black;stroke-width:1px;"/>
        <path id="arm_b_right" d="M930,270L885,270L880,315L890,365L935,350L930,270Z" style="fill:none;stroke:black;stroke-width:1px;"/>
        <path id="hand_r" d="M145,530L100,520C100,520 82.5,518.333 75,522C67.5,525.667 59.997,534.005 55,542C50,550 44.167,561.167 45,570C45.833,578.833 57.5,586.667 60,595C62.395,602.982 57.5,613.333 60,620C62.483,626.621 68.043,633.735 75,635C84.167,636.667 105.833,635.833 115,630C124.167,624.167 127.5,609.167 130,600C132.193,591.96 128.254,583.148 130,575C132.5,563.333 145,530 145,530Z" style="fill:none;stroke:black;stroke-width:1px;"/>
        <path id="wrist_r" d="M100,520L145,530L150,505L111,495L100,520Z" style="fill:none;stroke:black;stroke-width:1px;"/>
        <path id="forearm_r" d="M123,400L176,407L150,505L111,495L123,400Z" style="fill:none;stroke:black;stroke-width:1px;"/>
        <path id="elbow_r" d="M135,350L180,365L176,407L123,400L135,365L135,350Z" style="fill:none;stroke:black;stroke-width:1px;"/>
        <path id="arm_r" d="M185,290L135,290L135,350L180,365L185,290Z" style="fill:none;stroke:black;stroke-width:1px;"/>
        <path id="hand_l" d="M415,529L460,519C460,519 477.5,517.333 485,521C492.5,524.667 500.003,533.005 505,541C510,549 515.833,560.167 515,569C514.167,577.833 502.5,585.667 500,594C497.605,601.982 502.5,612.333 500,619C497.517,625.621 491.957,632.735 485,634C475.833,635.667 454.167,634.833 445,629C435.833,623.167 432.5,608.167 430,599C427.807,590.96 431.746,582.148 430,574C427.5,562.333 415,529 415,529Z" style="fill:none;stroke:black;stroke-width:1px;"/>
        <path id="wrist_l" d="M415,529L460,519L449,495L410,505L415,529Z" style="fill:none;stroke:black;stroke-width:1px;"/>
        <path id="forearm_l" d="M384,407L437,400L449,495L410,505L384,407Z" style="fill:none;stroke:black;stroke-width:1px;"/>
        <path id="elbow_l" d="M380,365L425,350L425,365L437,400L384,407L380,365Z" style="fill:none;stroke:black;stroke-width:1px;"/>
        <path id="arm_l" d="M425,290L375,290L380,365L425,350L425,290Z" style="fill:none;stroke:black;stroke-width:1px;"/>
        <path id="back_b_left" d="M735,435C740.23,434.346 745.286,437.643 750,440C755,442.5 761.815,444.904 765,450C769.166,456.667 774.999,480 774.999,480L775,385.625C775,385.625 758.899,395.093 750,395C740,394.896 715,385 715,385L710,445C710,445 728.333,435.833 735,435Z" style="fill:none;stroke:black;stroke-width:1px;"/>
        <path id="back_b_right" d="M845,435C839.77,434.346 834.714,437.643 830,440C825,442.5 818.185,444.904 815,450C810.834,456.667 805.001,480 805.001,480L805,385.625C805,385.625 821.101,395.093 830,395C840,394.896 865,385 865,385L870,445C870,445 851.667,435.833 845,435Z" style="fill:none;stroke:black;stroke-width:1px;"/>
        <path id="lumbar_spine" d="M790,495L774.999,480L775,385.625L790,380L805,385.625L805.001,480L790,495Z" style="fill:none;stroke:black;stroke-width:1px;"/>
        <path id="chest_b_right" d="M835,205C835,205 825.527,221.04 825,230C824.167,244.167 826.167,277.5 830,290C832.29,297.467 842.167,305.833 848,305C853.833,304.167 858.833,290.833 865,285C871.054,279.273 885,270 885,270L880,315L865,385C865,385 839.981,394.889 830,395C821.141,395.099 805.112,385.667 805.112,385.667L790,380C790,380 804.439,372.049 805,365C807.5,333.611 805.001,191.667 805.001,191.667L835,205Z" style="fill:none;stroke:black;stroke-width:1px;"/>
        <path id="chest_b_left" d="M745,205C745,205 754.473,221.04 755,230C755.833,244.167 753.833,277.5 750,290C747.71,297.467 737.833,305.833 732,305C726.167,304.167 721.167,290.833 715,285C708.946,279.273 695,270 695,270L700,315L715,385C715,385 739.957,394.912 750,395C758.991,395.079 775.255,385.529 775.255,385.529L790,380C790,380 775.561,372.049 775,365C772.5,333.611 774.999,191.667 774.999,191.667L745,205Z" style="fill:none;stroke:black;stroke-width:1px;"/>
        <path id="thoracic_spine" d="M790,185L774.999,191.667C774.999,191.667 772.5,333.611 775,365C775.561,372.049 790,380 790,380C790,380 804.439,372.049 805,365C807.5,333.611 805.001,191.667 805.001,191.667L790,185Z" style="fill:none;stroke:black;stroke-width:1px;"/>
        <path id="abdomen" d="M345,390L350,450L330,470L330,490L280,505L230,490L230,470L210,450L215,390L280,310L345,390Z" style="fill:none;stroke:black;stroke-width:1px;"/>
        <path id="chest_r" d="M270,280L270,225L268,200L210,200L185,290L215,390L280,310L270,280Z" style="fill:none;stroke:black;stroke-width:1px;"/>
        <path id="chest_l" d="M375,290L350,200L292,200L290,225L290,280L280,310L345,390L375,290Z" style="fill:none;stroke:black;stroke-width:1px;"/>
        <path id="sternum" d="M270,225L268,200L292,200L290,225L290,280L280,310L270,280L270,225Z" style="fill:none;stroke:black;stroke-width:1px;"/>
        <path id="shoulder_b_left" d="M745,205C745,205 754.473,221.04 755,230C755.833,244.167 753.833,277.5 750,290C747.71,297.467 737.833,305.833 732,305C726.167,304.167 721.167,290.833 715,285C708.946,279.273 695,270 695,270L650,270C650,270 646.951,228.302 660,215C677.167,197.5 753,165 753,165L775,178L790,185L745,205Z" style="fill:none;stroke:black;stroke-width:1px;"/>
        <path id="shoulder_b_right" d="M827,165L805,178L790,185L835,205C835,205 825.527,221.04 825,230C824.167,244.167 826.167,277.5 830,290C832.29,297.467 842.167,305.833 848,305C853.833,304.167 858.833,290.833 865,285C871.054,279.273 885,270 885,270L930,270C930,270 933.049,228.302 920,215C902.833,197.5 827,165 827,165Z" style="fill:none;stroke:black;stroke-width:1px;"/>
        <path id="shoulder_l" d="M375,290L350,200L292,200L312,160C312,160 372.833,185.833 390,195C399.414,200.027 409.167,207.5 415,215C420.51,222.085 423.814,231.103 425,240C426.667,252.5 425,290 425,290L375,290Z" style="fill:none;stroke:black;stroke-width:1px;"/>
        <path id="shoulder_r" d="M248,160L268,200L210,200L185,290L135,290C135,290 133.333,252.5 135,240C136.186,231.103 139.49,222.085 145,215C150.833,207.5 160.586,200.027 170,195C187.167,185.833 248,160 248,160Z" style="fill:none;stroke:black;stroke-width:1px;"/>
        <path id="neck_b_r" d="M827,165L805,178L805.01,110.02L820,105C820,105 818.833,140 820,150C820.639,155.48 827,165 827,165Z" style="fill:none;stroke:black;stroke-width:1px;"/>
        <path id="neck_b_l" d="M760,105L774.988,109.973L775,178L753,165C753,165 759.361,155.48 760,150C761.167,140 760,105 760,105Z" style="fill:none;stroke:black;stroke-width:1px;"/>
        <path id="cervical_spine" d="M775,178L774.99,109.973C774.99,109.973 785.137,114.992 790.14,115C795.144,115.008 805.01,110.02 805.01,110.02L805,178L790,185L775,178Z" style="fill:none;stroke:black;stroke-width:1px;"/>
        <path id="neck" d="M248,160L268,200L292,200L312,160L310,130C310,130 290,150 280,150C270,150 250,130 250,130L248,160Z" style="fill:none;stroke:black;stroke-width:1px;"/>
        <path id="right_ear" d="M247.852,121.624L237.072,78.289C237.072,78.289 228.061,72.623 226.973,78.843C225.773,85.704 234.152,105.879 237.632,113.009C239.239,116.302 247.852,121.624 247.852,121.624Z" style="fill:none;stroke:black;stroke-width:0.9px;"/>
        <path id="face" d="M235,70C235,70 242.5,51.167 250,45C257.5,38.833 270,33 280,33C290,33 302.5,38.833 310,45C317.5,51.167 325,70 325,70L310,130C310,130 290,150 280,150C270,150 250,130 250,130L235,70Z" style="fill:none;stroke:black;stroke-width:1px;"/>
        <path id="left_ear" d="M312.148,121.624L322.928,78.289C322.928,78.289 332.041,72.828 333.027,78.843C334.034,84.99 325.825,106.298 322.368,113.009C320.659,116.327 312.148,121.624 312.148,121.624Z" style="fill:none;stroke:black;stroke-width:0.83px;"/>
        <path id="head_b" d="M760,105L774.946,109.959C774.946,109.959 785.119,114.993 790.14,115C795.162,115.007 805.075,109.998 805.075,109.998L820,105C820,105 836.862,90.2 840,80C843.333,69.167 843.333,50 840,40C837.019,31.056 828.079,24.861 820,20C811.667,14.986 800,9.917 790,9.917C780,9.917 768.333,14.986 760,20C751.921,24.861 742.981,31.056 740,40C736.667,50 736.667,69.167 740,80C743.138,90.2 760,105 760,105Z" style="fill:none;stroke:black;stroke-width:1px;"/>
        <path id="Head" d="M235,70C235,70 242.5,51.167 250,45C257.5,38.833 270,33 280,33C290,33 302.5,38.833 310,45C317.5,51.167 325,70 325,70C325,70 325.333,43.333 322,35C319.193,27.983 311.494,23.865 305,20C298,15.833 288.333,10 280,10C271.667,10 262,15.841 255,20C248.511,23.856 240.803,27.949 238,34.957C234.667,43.29 235,70 235,70Z" style="fill:none;stroke:black;stroke-width:1px;"/>
    </g>
</svg>
